<svg width="50" height="50" viewBox="0 0 50 50" fill="none" xmlns="http://www.w3.org/2000/svg">
    <rect width="50" height="50" rx="5" fill="white" />
    <path
        d="M21.504 35.988C21.1527 36.5948 20.9851 37.2575 21.001 37.976C20.9851 38.7106 21.1527 39.3892 21.504 40.012C21.8712 40.6188 22.3661 41.1058 22.9888 41.4731C23.6115 41.8244 24.29 42 25.0245 42C25.727 42 26.3816 41.8244 26.9883 41.4731C27.595 41.1058 28.082 40.6188 28.4492 40.012C28.8164 39.3892 29 38.7106 29 37.976C29 37.2575 28.8164 36.5948 28.4492 35.988C28.082 35.3653 27.595 34.8782 26.9883 34.5269C26.3816 34.1756 25.727 34 25.0245 34C24.29 34 23.6115 34.1756 22.9888 34.5269C22.3661 34.8782 21.8712 35.3653 21.504 35.988Z"
        fill="#00CE72" />
    <path
        d="M28.3532 30.0293C28.3373 30.57 27.8945 31 27.3536 31H22.6464C22.1055 31 21.6627 30.57 21.6468 30.0293L21.0302 9.02935C21.0137 8.46581 21.466 8 22.0298 8H27.9702C28.534 8 28.9863 8.46581 28.9698 9.02935L28.3532 30.0293Z"
        fill="#040404" />
</svg>