<svg width="42" height="42" viewBox="0 0 42 42" fill="none" xmlns="http://www.w3.org/2000/svg">
    <rect width="42" height="42" rx="5" fill="white" />
    <path
        d="M18.064 30.2305C17.7689 30.7402 17.6281 31.2968 17.6415 31.9004C17.6281 32.5174 17.7689 33.0875 18.064 33.6106C18.3724 34.1203 18.7882 34.5294 19.3112 34.8379C19.8343 35.133 20.4043 35.2805 21.0212 35.2805C21.6113 35.2805 22.1612 35.133 22.6708 34.8379C23.1804 34.5294 23.5895 34.1203 23.8979 33.6106C24.2064 33.0875 24.3606 32.5174 24.3606 31.9004C24.3606 31.2968 24.2064 30.7402 23.8979 30.2305C23.5895 29.7074 23.1804 29.2983 22.6708 29.0032C22.1612 28.7081 21.6113 28.5605 21.0212 28.5605C20.4043 28.5605 19.8343 28.7081 19.3112 29.0032C18.7882 29.2983 18.3724 29.7074 18.064 30.2305Z"
        fill="#00CE72" />
    <path
        d="M23.8219 25.0701C23.806 25.6107 23.3631 26.0407 22.8223 26.0407H19.179C18.6381 26.0407 18.1953 25.6107 18.1794 25.0701L17.6708 7.75005C17.6543 7.18651 18.1066 6.7207 18.6704 6.7207H23.3308C23.8946 6.7207 24.3469 7.18651 24.3304 7.75005L23.8219 25.0701Z"
        fill="#040404" />
</svg>