<svg width="99" height="80" viewBox="0 0 99 80" fill="none" xmlns="http://www.w3.org/2000/svg">
    <rect x="0.501953" width="80" height="80" rx="5" fill="#0BCD76" />
    <path fill-rule="evenodd" clip-rule="evenodd"
        d="M98.502 21H9.50195V26.7419H98.502V21ZM32.8798 45.1982C43.0729 45.1982 51.3361 36.935 51.3361 26.7419H14.4236C14.4236 36.935 22.6867 45.1982 32.8798 45.1982ZM57.078 26.7419C57.078 36.935 65.3411 45.1982 75.5342 45.1982C85.7273 45.1982 93.9904 36.935 93.9904 26.7419H57.078Z"
        fill="#040404" />
    <path fill-rule="evenodd" clip-rule="evenodd"
        d="M58.2988 60.1874C44.6483 65.3524 34.2344 58.0296 30.6416 53.5586L35.1175 49.9619C37.6768 53.1468 45.6371 58.8391 56.2668 54.817L58.2988 60.1874Z"
        fill="#040404" />
</svg>