<svg width="43" height="42" viewBox="0 0 43 42" fill="none" xmlns="http://www.w3.org/2000/svg">
    <rect x="0.5" width="42" height="42" rx="5" fill="white" />
    <path
        d="M21.4992 37.7992C30.7776 37.7992 38.2992 30.2776 38.2992 20.9992C38.2992 11.7208 30.7776 4.19922 21.4992 4.19922C12.2208 4.19922 4.69922 11.7208 4.69922 20.9992C4.69922 30.2776 12.2208 37.7992 21.4992 37.7992Z"
        fill="#040404" />
    <path
        d="M21.4984 33.6004C28.4572 33.6004 34.0984 27.9592 34.0984 21.0004C34.0984 14.0416 28.4572 8.40039 21.4984 8.40039C14.5397 8.40039 8.89844 14.0416 8.89844 21.0004C8.89844 27.9592 14.5397 33.6004 21.4984 33.6004Z"
        fill="#F2F2F2" />
    <path
        d="M21.4081 30.9862C26.9752 30.9862 31.4881 26.4732 31.4881 20.9062C31.4881 15.3391 26.9752 10.8262 21.4081 10.8262C15.8411 10.8262 11.3281 15.3391 11.3281 20.9062C11.3281 26.4732 15.8411 30.9862 21.4081 30.9862Z"
        fill="#040404" />
    <path
        d="M21.5011 26.8791C24.7485 26.8791 27.3811 24.2466 27.3811 20.9991C27.3811 17.7517 24.7485 15.1191 21.5011 15.1191C18.2537 15.1191 15.6211 17.7517 15.6211 20.9991C15.6211 24.2466 18.2537 26.8791 21.5011 26.8791Z"
        fill="#F2F2F2" />
    <path
        d="M21.4069 24.2669C23.2626 24.2669 24.7669 22.7626 24.7669 20.9069C24.7669 19.0512 23.2626 17.5469 21.4069 17.5469C19.5512 17.5469 18.0469 19.0512 18.0469 20.9069C18.0469 22.7626 19.5512 24.2669 21.4069 24.2669Z"
        fill="#040404" />
    <path
        d="M20.605 21.4456C20.2254 21.0664 20.2254 20.4539 20.605 20.0747L25.8027 14.8828L27.1751 16.2537L21.9774 21.4456C21.5978 21.8248 20.9846 21.8248 20.605 21.4456Z"
        fill="#00CE72" />
    <path fill-rule="evenodd" clip-rule="evenodd"
        d="M29.7456 10.4363C30.2869 10.1335 30.9756 10.2248 31.4192 10.6682C31.8036 11.0597 31.9235 11.6237 31.7514 12.1185C31.8927 12.1791 32.0249 12.2551 32.1432 12.3458L33.269 13.209C33.7598 13.5852 33.4592 14.2438 32.7712 14.3017L30.1529 14.517C30.1209 14.5194 30.0889 14.521 30.0569 14.5219L26.9461 18.7421C26.3515 19.5559 25.1715 19.6473 24.458 18.9341L23.159 17.6357L23.1499 17.6265C22.4455 16.9133 22.5279 15.7338 23.342 15.1395L27.2955 12.2275C27.2919 12.1382 27.2945 12.0479 27.3033 11.9578L27.5755 9.34487C27.6483 8.65829 28.3133 8.3721 28.6788 8.87091L29.5172 10.0153C29.6104 10.1424 29.6868 10.2845 29.7456 10.4363Z"
        fill="#00CE72" />
</svg>