<svg width="51" height="50" viewBox="0 0 51 50" fill="none" xmlns="http://www.w3.org/2000/svg">
    <rect x="0.5" width="50" height="50" rx="5" fill="white" />
    <path
        d="M25.5 45C36.5457 45 45.5 36.0457 45.5 25C45.5 13.9543 36.5457 5 25.5 5C14.4543 5 5.5 13.9543 5.5 25C5.5 36.0457 14.4543 45 25.5 45Z"
        fill="#040404" />
    <path
        d="M25.5 40C33.7843 40 40.5 33.2843 40.5 25C40.5 16.7157 33.7843 10 25.5 10C17.2157 10 10.5 16.7157 10.5 25C10.5 33.2843 17.2157 40 25.5 40Z"
        fill="#F2F2F2" />
    <path
        d="M25.3887 36.8884C32.0161 36.8884 37.3887 31.5158 37.3887 24.8884C37.3887 18.261 32.0161 12.8884 25.3887 12.8884C18.7613 12.8884 13.3887 18.261 13.3887 24.8884C13.3887 31.5158 18.7613 36.8884 25.3887 36.8884Z"
        fill="#040404" />
    <path
        d="M25.5 32C29.366 32 32.5 28.866 32.5 25C32.5 21.134 29.366 18 25.5 18C21.634 18 18.5 21.134 18.5 25C18.5 28.866 21.634 32 25.5 32Z"
        fill="#F2F2F2" />
    <path
        d="M25.3887 28.8884C27.5978 28.8884 29.3887 27.0976 29.3887 24.8884C29.3887 22.6793 27.5978 20.8884 25.3887 20.8884C23.1795 20.8884 21.3887 22.6793 21.3887 24.8884C21.3887 27.0976 23.1795 28.8884 25.3887 28.8884Z"
        fill="#040404" />
    <path
        d="M24.4307 25.5306C23.9788 25.0792 23.9788 24.35 24.4307 23.8986L30.6184 17.7178L32.2522 19.3498L26.0645 25.5306C25.6126 25.982 24.8826 25.982 24.4307 25.5306Z"
        fill="#00CE72" />
    <path fill-rule="evenodd" clip-rule="evenodd"
        d="M35.3161 12.4249C35.9605 12.0647 36.78 12.1734 37.308 12.7012C37.7659 13.1676 37.9085 13.8395 37.7031 14.4289C37.8703 14.5008 38.0266 14.5909 38.1667 14.6983L39.507 15.7258C40.0912 16.1738 39.7334 16.9578 38.9143 17.0267L35.7974 17.283C35.7604 17.2858 35.7234 17.2877 35.6864 17.2888L31.9829 22.313C31.275 23.2818 29.8703 23.3906 29.0208 22.5416L27.4745 20.9958L27.4636 20.985C26.6251 20.1359 26.7231 18.7317 27.6923 18.0241L32.3996 14.557C32.3954 14.451 32.3985 14.344 32.4089 14.2372L32.733 11.1265C32.8196 10.3092 33.6113 9.96847 34.0464 10.5623L35.0446 11.9246C35.1553 12.0757 35.2461 12.2446 35.3161 12.4249Z"
        fill="#00CE72" />
</svg>