<svg width="144" height="33" viewBox="0 0 144 33" fill="none" xmlns="http://www.w3.org/2000/svg">
    <path
        d="M114.825 29.5476L108.245 23.6542C108.245 23.6542 111.475 21.5956 114.3 18.0838L108.245 18.2856L107.842 11.6657L117.852 11.9886C118.135 11.2216 118.337 10.4143 118.498 9.56664L109.255 10.0914V2.26047H128.913C128.913 20.1828 114.825 29.5476 114.825 29.5476ZM129.68 0H140.731V10.1721L144 10.0107V20.6672L140.731 20.5461V32.0503C139.076 31.9695 137.502 31.9292 136.169 31.9292C133.505 31.9292 131.729 32.0503 131.729 32.0503H131.527V4.56131L129.68 0Z"
        fill="#121212" />
    <path
        d="M79.5808 28.2559C73.7278 28.2559 71.1848 25.9147 71.1848 21.1112V6.74105L69.2158 2.26047H90.5199V9.08226L80.4285 8.75933V11.4235L90.5602 11.1005L90.1566 17.7205L80.4285 17.4379V18.8911C80.4285 20.3039 81.034 20.425 82.0027 20.425C85.676 20.425 91.085 20.0213 91.085 20.0213L90.7621 28.2559H79.5808ZM91.6098 0H102.661V10.1721L105.931 10.0107V20.6672L102.661 20.5461V32.0503C97.6153 31.8081 93.4576 32.0503 93.4576 32.0503V4.56131L91.6098 0Z"
        fill="#121212" />
    <path
        d="M42.0428 29.5476L35.4632 23.6542C35.4632 23.6542 38.6925 21.5956 41.5181 18.0838L35.4632 18.2856L35.0596 11.6657L45.0702 11.9886C45.3528 11.2216 45.5546 10.4143 45.7161 9.56664L36.4724 10.0914V2.26047H56.1304C56.1304 20.1828 42.0428 29.5476 42.0428 29.5476ZM56.8974 0H67.9486V32.0503C66.2936 31.9695 64.7193 31.9292 63.3872 31.9292C60.7231 31.9292 58.947 32.0503 58.947 32.0503H58.7452V4.56131L56.8974 0Z"
        fill="#121212" />
    <path
        d="M10.365 28.2559C4.51198 28.2559 1.96894 25.9147 1.96894 21.1112V6.74105L0 2.26047H21.3041V9.08226L11.2127 8.75933V11.4235L21.3444 11.1005L20.9408 17.7205L11.2127 17.4379V18.8911C11.2127 20.3039 11.8181 20.425 12.7869 20.425C16.4602 20.425 21.8692 20.0213 21.8692 20.0213L21.5463 28.2559H10.365ZM22.3939 0H33.4451V32.0503C28.3994 31.8081 24.2418 32.0503 24.2418 32.0503V4.56131L22.3939 0Z"
        fill="#121212" />
</svg>