<svg width="880" height="310" viewBox="0 0 880 310" fill="none" xmlns="http://www.w3.org/2000/svg">
    <mask id="mask0_324_465" style="mask-type:luminance" maskUnits="userSpaceOnUse" x="440" y="-1" width="440"
        height="311">
        <path d="M440 -0.000152588L440 309.024L880 309.024L880 -0.000171821L440 -0.000152588Z" fill="white" />
    </mask>
    <g mask="url(#mask0_324_465)">
        <path d="M440 -0.000152588L440 309.024L880 309.024L880 -0.000171821L440 -0.000152588Z" fill="#040404" />
        <path
            d="M880.003 309.024L880.003 -0.00336367C794.949 -0.00335995 726 69.1741 726 154.511C726 239.847 794.949 309.024 880.003 309.024Z"
            fill="#00CE72" />
        <path
            d="M571.435 22.643C541.367 -7.5239 492.619 -7.5239 462.552 22.643C432.485 52.81 432.485 101.72 462.552 131.887C492.619 162.054 541.367 162.054 571.435 131.887C601.502 101.72 601.502 52.81 571.435 22.643Z"
            fill="#00CE72" />
        <path d="M432.763 154.511L432.763 309.024L880.004 309.024L880.004 154.511L432.763 154.511Z" fill="#00CE72" />
        <path d="M440.424 309.024L594.93 309.024L594.93 154.511L440.424 309.024Z" fill="#B2FFD1" />
        <path d="M726.081 -0.00314904L594.931 154.511L594.931 -0.00314331L726.081 -0.00314904Z" fill="#B2FFD1" />
        <path d="M594.931 154.511L726.081 -0.00314904L726.081 154.511L594.931 154.511Z" fill="#00CE72" />
        <path d="M726 154.511L726 309.024L880.003 309.024L880.003 154.511L726 154.511Z" fill="#B2FFD1" />
    </g>
    <mask id="mask1_324_465" style="mask-type:luminance" maskUnits="userSpaceOnUse" x="0" y="0" width="440"
        height="309">
        <path d="M440 308.027L440 0.0246582L0 0.024639L-1.34632e-05 308.027L440 308.027Z" fill="white" />
    </mask>
    <g mask="url(#mask1_324_465)">
        <path d="M440 308.027L440 0.0246582L0 0.024639L-1.34632e-05 308.027L440 308.027Z" fill="#B2FFD1" />
        <path d="M154 154.015L154 0.0344238L-0.00289917 0.0344171L-0.0029059 154.015L154 154.015Z" fill="white" />
        <path d="M154 308.018L154 154.037L-0.00289917 154.037L-0.0029059 308.018L154 308.018Z" fill="#040404" />
        <path
            d="M154 308.031L154 0.0280762C68.9458 0.0280725 -0.00290218 68.9768 -0.0029059 154.031C-0.00290962 239.085 68.9458 308.034 154 308.034L154 308.031Z"
            fill="#00CE72" />
        <path d="M440 154.028L440 0.0246582L154 0.0246457L154 154.028L440 154.028Z" fill="#040404" />
        <path
            d="M153.999 0.0344205L153.999 154.015C196.522 154.015 230.991 119.545 230.991 77.0263C230.991 34.5072 196.522 0.0344223 153.999 0.0344205Z"
            fill="#B2FFD1" />
        <path d="M440 154.028L307.842 154.028L307.842 308.031L440 154.028Z" fill="white" />
        <path d="M307.842 308.031L307.842 154.028L153.999 154.028L153.999 308.031L307.842 308.031Z" fill="white" />
    </g>
</svg>