<svg width="42" height="42" viewBox="0 0 42 42" fill="none" xmlns="http://www.w3.org/2000/svg">
    <rect width="42" height="42" rx="5" fill="#00CE72" />
    <path
        d="M20.9991 36.961C29.8135 36.961 36.9591 29.8155 36.9591 21.001C36.9591 12.1866 29.8135 5.04102 20.9991 5.04102C12.1846 5.04102 5.03906 12.1866 5.03906 21.001C5.03906 29.8155 12.1846 36.961 20.9991 36.961Z"
        fill="#040404" />
    <path
        d="M21.0022 32.7602C27.4971 32.7602 32.7622 27.4951 32.7622 21.0002C32.7622 14.5054 27.4971 9.24023 21.0022 9.24023C14.5073 9.24023 9.24219 14.5054 9.24219 21.0002C9.24219 27.4951 14.5073 32.7602 21.0022 32.7602Z"
        fill="white" />
    <rect x="20.1562" y="15.9609" width="1.68" height="5.88" rx="0.84" fill="#040404" />
    <rect x="25.7266" y="23.0996" width="1.68" height="5.52555" rx="0.84" transform="rotate(122.146 25.7266 23.0996)"
        fill="#040404" />
    <rect x="20.1562" y="10.9199" width="1.68" height="3.36" rx="0.84" fill="#00CE72" />
    <rect x="19.7383" y="19.7402" width="2.52" height="2.52" rx="1.26" fill="#040404" stroke="#040404"
        stroke-width="0.5" />
    <rect x="20.1562" y="27.7207" width="1.68" height="3.36" rx="0.84" fill="#00CE72" />
    <rect x="27.7188" y="21.8398" width="1.68" height="3.36" rx="0.84" transform="rotate(-90 27.7188 21.8398)"
        fill="#00CE72" />
    <rect x="10.918" y="21.8398" width="1.68" height="3.36" rx="0.84" transform="rotate(-90 10.918 21.8398)"
        fill="#00CE72" />
</svg>