<svg width="43" height="42" viewBox="0 0 43 42" fill="none" xmlns="http://www.w3.org/2000/svg">
    <rect x="0.5" width="42" height="42" rx="5" fill="#00CE72" />
    <rect x="9.73828" y="6.7207" width="23.52" height="28.56" rx="2" fill="white" />
    <path fill-rule="evenodd" clip-rule="evenodd"
        d="M18.2969 3.35938C17.7446 3.35938 17.2969 3.80709 17.2969 4.35937V5.03937H15.7773C15.2251 5.03937 14.7773 5.48709 14.7773 6.03937V7.39937C14.7773 7.95166 15.2251 8.39937 15.7773 8.39937H27.2173C27.7696 8.39937 28.2173 7.95166 28.2173 7.39937V6.03937C28.2173 5.48709 27.7696 5.03937 27.2173 5.03937H25.6969V4.35937C25.6969 3.80709 25.2492 3.35938 24.6969 3.35938L18.2969 3.35938Z"
        fill="#040404" />
    <rect x="13.9414" y="13.4395" width="8.4" height="1.68" rx="0.84" fill="#00CE72" />
    <rect x="13.9414" y="18.4805" width="15.12" height="1.68" rx="0.84" fill="#00CE72" />
    <rect x="13.9414" y="23.5195" width="15.12" height="1.68" rx="0.84" fill="#00CE72" />
    <rect x="13.9414" y="28.5605" width="15.12" height="1.68" rx="0.84" fill="#00CE72" />
</svg>