<svg width="51" height="50" viewBox="0 0 51 50" fill="none" xmlns="http://www.w3.org/2000/svg">
    <rect x="0.5" width="50" height="50" rx="5" fill="#00CE72" />
    <rect x="11.5" y="8" width="28" height="34" rx="2" fill="white" />
    <path fill-rule="evenodd" clip-rule="evenodd"
        d="M21.5 4C20.9477 4 20.5 4.44772 20.5 5V6H18.5C17.9477 6 17.5 6.44772 17.5 7V9C17.5 9.55228 17.9477 10 18.5 10H32.5C33.0523 10 33.5 9.55228 33.5 9V7C33.5 6.44772 33.0523 6 32.5 6H30.5V5C30.5 4.44772 30.0523 4 29.5 4H21.5Z"
        fill="#040404" />
    <rect x="16.5" y="16" width="10" height="2" rx="1" fill="#00CE72" />
    <rect x="16.5" y="22" width="18" height="2" rx="1" fill="#00CE72" />
    <rect x="16.5" y="28" width="18" height="2" rx="1" fill="#00CE72" />
    <rect x="16.5" y="34" width="18" height="2" rx="1" fill="#00CE72" />
</svg>